<mxfile host="app.diagrams.net" modified="2023-12-03T10:01:41.347Z" agent="Mozilla/5.0 (Windows NT 10.0; Win64; x64) AppleWebKit/537.36 (KHTML, like Gecko) Chrome/119.0.0.0 Safari/537.36" etag="eGsagqrHNiPuQZUq_pu8" version="21.7.5" type="device">
  <diagram id="C5RBs43oDa-KdzZeNtuy" name="Page-1">
    <mxGraphModel dx="744" dy="386" grid="1" gridSize="10" guides="1" tooltips="1" connect="1" arrows="1" fold="1" page="1" pageScale="1" pageWidth="827" pageHeight="1169" math="0" shadow="0">
      <root>
        <mxCell id="WIyWlLk6GJQsqaUBKTNV-0" />
        <mxCell id="WIyWlLk6GJQsqaUBKTNV-1" parent="WIyWlLk6GJQsqaUBKTNV-0" />
        <mxCell id="4TtFAJfxPkDFNgb-mWvu-3" value="" style="edgeStyle=orthogonalEdgeStyle;rounded=0;orthogonalLoop=1;jettySize=auto;html=1;" edge="1" parent="WIyWlLk6GJQsqaUBKTNV-1" source="4TtFAJfxPkDFNgb-mWvu-1" target="4TtFAJfxPkDFNgb-mWvu-2">
          <mxGeometry relative="1" as="geometry" />
        </mxCell>
        <mxCell id="4TtFAJfxPkDFNgb-mWvu-1" value="Старт" style="rounded=1;whiteSpace=wrap;html=1;" vertex="1" parent="WIyWlLk6GJQsqaUBKTNV-1">
          <mxGeometry x="140" y="80" width="60" height="30" as="geometry" />
        </mxCell>
        <mxCell id="4TtFAJfxPkDFNgb-mWvu-5" value="" style="edgeStyle=orthogonalEdgeStyle;rounded=0;orthogonalLoop=1;jettySize=auto;html=1;" edge="1" parent="WIyWlLk6GJQsqaUBKTNV-1" source="4TtFAJfxPkDFNgb-mWvu-2" target="4TtFAJfxPkDFNgb-mWvu-4">
          <mxGeometry relative="1" as="geometry" />
        </mxCell>
        <mxCell id="4TtFAJfxPkDFNgb-mWvu-2" value="string[] strings = {&quot;X&quot;, &quot;Y&quot;, &quot;Z&quot;, &quot;W&quot;, &quot;O&quot;};&amp;nbsp;" style="rounded=0;whiteSpace=wrap;html=1;" vertex="1" parent="WIyWlLk6GJQsqaUBKTNV-1">
          <mxGeometry x="57.5" y="140" width="225" height="40" as="geometry" />
        </mxCell>
        <mxCell id="4TtFAJfxPkDFNgb-mWvu-7" value="" style="edgeStyle=orthogonalEdgeStyle;rounded=0;orthogonalLoop=1;jettySize=auto;html=1;" edge="1" parent="WIyWlLk6GJQsqaUBKTNV-1" source="4TtFAJfxPkDFNgb-mWvu-4" target="4TtFAJfxPkDFNgb-mWvu-6">
          <mxGeometry relative="1" as="geometry" />
        </mxCell>
        <mxCell id="4TtFAJfxPkDFNgb-mWvu-4" value="string[] result = strings.Where(x =&amp;gt; x.Length &amp;lt;= 3).ToArray();" style="rounded=0;whiteSpace=wrap;html=1;" vertex="1" parent="WIyWlLk6GJQsqaUBKTNV-1">
          <mxGeometry x="3.75" y="200" width="332.5" height="40" as="geometry" />
        </mxCell>
        <mxCell id="4TtFAJfxPkDFNgb-mWvu-9" value="" style="edgeStyle=orthogonalEdgeStyle;rounded=0;orthogonalLoop=1;jettySize=auto;html=1;" edge="1" parent="WIyWlLk6GJQsqaUBKTNV-1" source="4TtFAJfxPkDFNgb-mWvu-6" target="4TtFAJfxPkDFNgb-mWvu-8">
          <mxGeometry relative="1" as="geometry" />
        </mxCell>
        <mxCell id="4TtFAJfxPkDFNgb-mWvu-6" value="void PrintArray(string[] arr)" style="rounded=0;whiteSpace=wrap;html=1;" vertex="1" parent="WIyWlLk6GJQsqaUBKTNV-1">
          <mxGeometry x="90" y="260" width="160" height="30" as="geometry" />
        </mxCell>
        <mxCell id="4TtFAJfxPkDFNgb-mWvu-8" value="PrintArray(result)" style="rounded=0;whiteSpace=wrap;html=1;" vertex="1" parent="WIyWlLk6GJQsqaUBKTNV-1">
          <mxGeometry x="110" y="310" width="120" height="30" as="geometry" />
        </mxCell>
      </root>
    </mxGraphModel>
  </diagram>
</mxfile>
